<?xml version="1.0" encoding="UTF-8" standalone="no"?>
<svg width="563" height="177" viewBox="0 0 563 177" fill="none" xmlns="http://www.w3.org/2000/svg">
  <path d="M363.551 42.3037H385.481V133.636H363.551V42.3037Z" fill="#171717"/>
  <path d="M452.373 41.3037C451.813 41.3037 415.664 41.3037 415.664 41.3037V133.636H437.594V95.6107H452.373C478.467 95.6107 494.362 80.3933 494.362 68.4572C494.362 56.5211 479.027 41.3037 452.373 41.3037ZM452.373 73.6812H437.594V63.2331H452.373C458.772 63.2331 468.269 64.7936 468.269 68.4572C468.269 72.1207 458.772 73.6812 452.373 73.6812Z" fill="#171717"/>
  <path d="M563 41.3037H535.791V133.636H557.721V89.3265C557.721 82.4818 562.44 75.2419 574.897 75.2419C574.897 75.2419 574.897 41.3037 563 41.3037Z" fill="#171717"/>
  <path d="M506.538 41.3037H528.468V133.636H506.538V41.3037Z" fill="#171717"/>
  <path d="M307.267 41.3037H285.338V133.636H307.267V95.6108H339.059V73.6812H307.267V41.3037Z" fill="#171717"/>
  <path d="M271.678 63.2334C271.678 63.2334 255.223 41.3037 226.898 41.3037C198.573 41.3037 176.644 63.2334 176.644 87.4842C176.644 111.735 198.573 133.636 226.898 133.636C255.223 133.636 271.678 111.735 271.678 87.4842V63.2334ZM226.898 111.735C210.45 111.735 198.573 101.276 198.573 87.4842C198.573 73.6812 210.45 63.2334 226.898 63.2334C243.345 63.2334 249.773 73.6812 249.773 83.0461V91.9472C249.773 101.276 243.345 111.735 226.898 111.735Z" fill="#171717"/>
  <path d="M101.608 0C103.848 0 106.088 2.24011 106.088 4.48022V64.3839C106.088 77.6212 95.7271 87.5137 84.0415 87.5137C72.3558 87.5137 61.995 77.6212 61.995 64.3839V33.6017C61.995 31.3616 59.7547 29.1214 57.5144 29.1214C55.274 29.1214 53.0337 31.3616 53.0337 33.6017V64.3839C53.0337 77.6212 42.673 87.5137 30.9874 87.5137C19.3017 87.5137 8.94095 77.6212 8.94095 64.3839V4.48022C8.94095 2.24011 6.70084 0 4.48022 0C2.24011 0 0 2.24011 0 4.48022V64.3839C0 82.5841 13.7939 96.3976 30.9874 96.3976C41.7916 96.3976 51.2708 91.4448 57.5144 83.9223C63.758 91.4448 73.2371 96.3976 84.0415 96.3976C101.235 96.3976 115.029 82.5841 115.029 64.3839V4.48022C115.029 2.24011 112.789 0 110.549 0" fill="#C2B1DF"/>
  <path d="M91.2236 176.747C127.273 176.747 156.525 147.495 156.525 111.446C156.525 108.771 153.85 106.965 151.175 106.965C149.37 106.965 147.564 108.771 147.564 111.446C147.564 142.12 122.792 166.892 91.2236 166.892C59.6556 166.892 34.8835 142.12 34.8835 111.446C34.8835 109.672 34.8835 107.871 35.3097 105.208C35.7632 102.532 33.952 99.8504 31.303 99.3896C28.6538 98.936 25.9721 100.747 25.5186 103.403C24.6234 106.965 24.1698 110.098 24.1698 111.446C24.1698 147.495 53.4214 176.747 91.2236 176.747" fill="#C2B1DF"/>
</svg>