<?xml version="1.0" encoding="UTF-8"?>
<svg width="200px" height="60px" viewBox="0 0 200 60" version="1.1" xmlns="http://www.w3.org/2000/svg">
    <g stroke="none" stroke-width="1" fill="none" fill-rule="evenodd">
        <g transform="translate(10, 15)" fill="#6a4c93" fill-rule="nonzero">
            <path d="M14.7,29.3 C12.1,29.3 9.8,28.5 7.9,26.9 C6,25.3 4.8,23.1 4.2,20.4 L0,0 L7.4,0 L10.8,19.1 C11,19.9 11.4,20.6 12,21.1 C12.6,21.6 13.4,21.8 14.3,21.8 C15.2,21.8 16,21.6 16.6,21.1 C17.2,20.6 17.6,19.9 17.8,19.1 L21.2,0 L28.6,0 L24.4,20.4 C23.8,23.1 22.6,25.3 20.7,26.9 C18.8,28.5 16.5,29.3 13.9,29.3 L14.7,29.3 Z"></path>
            <path d="M43.7,8.3 L43.7,28.7 L36.3,28.7 L36.3,8.3 L29,8.3 L29,1.3 L51,1.3 L51,8.3 L43.7,8.3 Z"></path>
            <path d="M63.9,29.3 C60.6,29.3 57.9,28.2 55.9,26.1 C53.9,24 52.9,21.2 52.9,17.6 L52.9,1.3 L60.3,1.3 L60.3,16.9 C60.3,18.5 60.7,19.7 61.5,20.6 C62.3,21.5 63.4,21.9 64.8,21.9 C66.2,21.9 67.3,21.5 68.1,20.6 C68.9,19.7 69.3,18.5 69.3,16.9 L69.3,1.3 L76.7,1.3 L76.7,17.6 C76.7,21.2 75.7,24 73.7,26.1 C71.7,28.2 69,29.3 65.7,29.3 L63.9,29.3 Z"></path>
            <path d="M108.1,28.7 L102.1,18.7 L97.6,18.7 L97.6,28.7 L90.2,28.7 L90.2,1.3 L103.7,1.3 C106.5,1.3 108.7,2.1 110.3,3.6 C111.9,5.1 112.7,7.1 112.7,9.6 C112.7,11.6 112.2,13.3 111.3,14.7 C110.4,16.1 109,17 107.3,17.5 L114.4,28.7 L108.1,28.7 Z M101.9,8.3 L97.6,8.3 L97.6,13.3 L101.9,13.3 C102.8,13.3 103.5,13.1 104,12.6 C104.5,12.1 104.8,11.5 104.8,10.8 C104.8,10.1 104.5,9.5 104,9 C103.5,8.5 102.8,8.3 101.9,8.3 Z"></path>
            <path d="M135.8,28.7 L129.8,18.7 L125.3,18.7 L125.3,28.7 L117.9,28.7 L117.9,1.3 L131.4,1.3 C134.2,1.3 136.4,2.1 138,3.6 C139.6,5.1 140.4,7.1 140.4,9.6 C140.4,11.6 139.9,13.3 139,14.7 C138.1,16.1 136.7,17 135,17.5 L142.1,28.7 L135.8,28.7 Z M129.6,8.3 L125.3,8.3 L125.3,13.3 L129.6,13.3 C130.5,13.3 131.2,13.1 131.7,12.6 C132.2,12.1 132.5,11.5 132.5,10.8 C132.5,10.1 132.2,9.5 131.7,9 C131.2,8.5 130.5,8.3 129.6,8.3 Z"></path>
            <path d="M153.9,28.7 L145.5,1.3 L153.1,1.3 L157.2,18.3 L161.9,1.3 L168.8,1.3 L173.5,18.3 L177.6,1.3 L185.2,1.3 L176.8,28.7 L169.4,28.7 L165.3,15 L161.3,28.7 L153.9,28.7 Z"></path>
        </g>
    </g>
</svg>